<!-- icon666.com - MILLIONS vector ICONS FREE --><svg version="1.1" id="Capa_1" xmlns="http://www.w3.org/2000/svg" xmlns:xlink="http://www.w3.org/1999/xlink" x="0px" y="0px" viewBox="0 0 512.002 512.002" style="enable-background:new 0 0 512.002 512.002;" xml:space="preserve"><path style="fill:#FFDB28;" d="M137.008,389.612c-3.916,0-7.75-1.535-10.608-4.394c-4.018-4.018-5.42-9.96-3.624-15.351 l31.821-95.463c2.62-7.859,11.111-12.107,18.975-9.487c7.859,2.62,12.107,11.115,9.487,18.975l-22.334,67.002l67.002-22.334 c7.864-2.619,16.355,1.628,18.975,9.487c2.62,7.859-1.628,16.355-9.487,18.975l-95.464,31.821 C140.195,389.36,138.594,389.612,137.008,389.612z"></path><path style="fill:#00E8F1;" d="M347.014,511.616H45.002C20.188,511.616,0,491.428,0,466.614V164.602 C0,139.788,20.188,119.6,45.002,119.6h268.371c8.284,0,15.001,6.716,15.001,15.001s-6.716,15.001-15.001,15.001H45.002 c-8.271,0-15.001,6.729-15.001,15.001v302.012c0,8.271,6.729,15.001,15.001,15.001h302.012c8.271,0,15.001-6.729,15.001-15.001 V198.243c0-8.284,6.716-15.001,15.001-15.001c8.284,0,15.001,6.716,15.001,15.001v268.371 C392.016,491.428,371.828,511.616,347.014,511.616z"></path><path style="fill:#FF180B;" d="M445.298,145.601c-3.847,0-7.692-1.47-10.623-4.409c-5.849-5.867-5.834-15.365,0.032-21.214 l42.936-42.806c5.833-5.833,5.833-15.35-0.016-21.198l-21.214-21.214c-5.849-5.849-15.366-5.848-21.214,0l-42.591,42.464 c-5.867,5.849-15.365,5.835-21.214-0.032c-5.849-5.867-5.835-15.365,0.032-21.214l42.576-42.448 C431.533-3.998,460.082-4,477.629,13.547l21.214,21.214c17.546,17.547,17.546,46.096,0,63.642l-42.952,42.823 C452.962,144.142,449.129,145.601,445.298,145.601z"></path><path style="fill:#88D9F5;" d="M466.25,166.437c-3.839,0-7.678-1.464-10.606-4.393l-106.07-106.07 c-5.858-5.858-5.858-15.356,0-21.214c5.857-5.858,15.356-5.858,21.214,0l106.07,106.07c5.858,5.858,5.858,15.356,0,21.214 C473.928,164.973,470.089,166.437,466.25,166.437z"></path><path style="fill:#009DFF;" d="M455.921,120.009c-5.85-5.867-15.349-5.881-21.214-0.032l-31.827,31.731l-42.428-42.428 l32.155-32.058c5.867-5.849,5.881-15.347,0.032-21.214c-5.85-5.867-15.348-5.881-21.214-0.032l-40.497,40.375 c-0.91,0.579-1.775,1.256-2.569,2.05c-0.784,0.784-1.455,1.638-2.03,2.535L158.235,268.524c-0.003,0.003-0.006,0.007-0.009,0.01 c-0.002,0.002-0.005,0.004-0.007,0.006c-0.147,0.147-0.273,0.305-0.412,0.456c-0.207,0.224-0.421,0.443-0.612,0.677 c-0.125,0.154-0.231,0.317-0.35,0.474c-0.184,0.245-0.376,0.486-0.543,0.739c-0.104,0.157-0.189,0.323-0.286,0.483 c-0.16,0.263-0.327,0.524-0.47,0.795c-0.086,0.164-0.153,0.334-0.233,0.5c-0.132,0.276-0.271,0.549-0.385,0.83 c-0.07,0.172-0.121,0.35-0.184,0.525c-0.102,0.282-0.212,0.562-0.297,0.848c-0.053,0.177-0.086,0.359-0.132,0.537 c-0.074,0.289-0.155,0.576-0.212,0.869c-0.034,0.176-0.049,0.353-0.077,0.53c-0.047,0.299-0.1,0.596-0.129,0.897 c-0.017,0.178-0.016,0.357-0.026,0.536c-0.018,0.301-0.043,0.601-0.043,0.902c0,0.182,0.019,0.364,0.025,0.547 c0.011,0.297,0.014,0.595,0.043,0.891c0.018,0.186,0.055,0.37,0.079,0.556c0.039,0.291,0.07,0.583,0.126,0.872 c0.037,0.191,0.093,0.378,0.138,0.568c0.065,0.28,0.123,0.561,0.204,0.837c0.057,0.192,0.133,0.378,0.198,0.568 c0.092,0.27,0.175,0.542,0.282,0.807c0.076,0.189,0.173,0.371,0.258,0.557c0.117,0.259,0.226,0.521,0.359,0.774 c0.105,0.199,0.231,0.39,0.345,0.585c0.135,0.231,0.261,0.467,0.409,0.692c0.132,0.201,0.287,0.391,0.43,0.586 c0.153,0.21,0.296,0.425,0.462,0.628c0.157,0.193,0.336,0.373,0.505,0.56c0.172,0.191,0.332,0.388,0.516,0.572 c0.003,0.003,0.006,0.005,0.009,0.008s0.005,0.006,0.008,0.008l63.643,63.643c0.191,0.191,0.395,0.358,0.594,0.537 c0.18,0.162,0.353,0.335,0.538,0.487c0.199,0.163,0.411,0.303,0.616,0.454c0.2,0.147,0.394,0.305,0.599,0.44 c0.192,0.127,0.394,0.232,0.59,0.35c0.229,0.137,0.454,0.284,0.689,0.407c0.193,0.102,0.393,0.182,0.589,0.274 c0.247,0.116,0.491,0.242,0.742,0.345c0.202,0.082,0.409,0.142,0.614,0.215c0.253,0.09,0.504,0.19,0.761,0.266 c0.226,0.067,0.457,0.111,0.685,0.167c0.24,0.059,0.479,0.129,0.721,0.176c0.274,0.053,0.552,0.082,0.829,0.12 c0.2,0.027,0.399,0.067,0.6,0.087c0.478,0.046,0.959,0.069,1.439,0.069c0.479,0,0.958-0.023,1.436-0.069 c0.199-0.019,0.396-0.059,0.595-0.086c0.277-0.038,0.556-0.067,0.831-0.12c0.219-0.042,0.433-0.106,0.65-0.158 c0.252-0.061,0.506-0.111,0.755-0.184c0.22-0.065,0.433-0.152,0.65-0.227c0.241-0.083,0.485-0.156,0.722-0.253 c0.208-0.084,0.408-0.19,0.613-0.284c0.24-0.11,0.483-0.21,0.717-0.333c0.189-0.099,0.369-0.219,0.554-0.327 c0.242-0.141,0.488-0.272,0.723-0.427c0.173-0.114,0.337-0.249,0.506-0.371c0.237-0.171,0.478-0.333,0.707-0.52 c0.157-0.128,0.303-0.275,0.456-0.411c0.227-0.2,0.458-0.392,0.675-0.608l212.829-212.189 C461.756,135.374,461.77,125.876,455.921,120.009z M381.634,172.891l-149.149,148.7l-42.428-42.428l149.149-148.701L381.634,172.891 z"></path></svg>