<!-- icon666.com - MILLIONS vector ICONS FREE --><svg xmlns="http://www.w3.org/2000/svg" id="Layer_1" data-name="Layer 1" viewBox="0 0 48 48"><path d="M26.93005,14.66461V12.93094A2.27861,2.27861,0,0,0,24.65114,10.652H23.34891a2.27865,2.27865,0,0,0-2.279,2.27891h0c0,.56164,0,1.20458-.00538,1.72279v.01088a.31766.31766,0,0,1-.21709.30109l-.00538.00269a8.0888,8.0888,0,0,0-.99837.42332.32313.32313,0,0,1-.37175-.06516l-1.22627-1.22626a2.27927,2.27927,0,0,0-3.223,0l-.92237.92241a2.27919,2.27919,0,0,0,0,3.223c.39605.39613.85448.852,1.21534,1.22093l.00819.00811a.32608.32608,0,0,1,.05962.36894l-.0027.00542a8.36716,8.36716,0,0,0-.40966,1.00384.32463.32463,0,0,1-.30655.217H12.93094A2.27864,2.27864,0,0,0,10.652,23.34886v1.30228a2.27866,2.27866,0,0,0,2.27891,2.27891h0c.56164,0,1.20458,0,1.72279.00538h.01084a.32368.32368,0,0,1,.30386.21709V27.158a8.69249,8.69249,0,0,0,.43405,1.02276.3279.3279,0,0,1-.06239.37166l-1.22357,1.229a2.27924,2.27924,0,0,0,.00819,3.223l.92241.917a2.27681,2.27681,0,0,0,3.223-.00812c.39613-.39609.85187-.85452,1.22084-1.21542l.0082-.0082a.31813.31813,0,0,1,.36624-.06234l.00538.00265a8.35963,8.35963,0,0,0,.98211.3989.32443.32443,0,0,1,.217.30651v1.73363a2.27867,2.27867,0,0,0,2.279,2.27891h1.30223a2.27864,2.27864,0,0,0,2.27891-2.27891h0c0-.5616,0-1.20458.00542-1.7227v-.01093a.31773.31773,0,0,1,.21705-.30113l.00542-.00273a8.11513,8.11513,0,0,0,.99837-.42316.32285.32285,0,0,1,.37171.065l1.22631,1.22627a2.2791,2.2791,0,0,0,3.223,0l.92241-.92225a2.27934,2.27934,0,0,0,0-3.22309c-.39608-.39609-.8546-.852-1.21542-1.22089l-.00811-.00819a.326.326,0,0,1-.05974-.36894l.00274-.00546a8.36808,8.36808,0,0,0,.40966-1.00372.32455.32455,0,0,1,.30659-.21708h1.73359A2.27864,2.27864,0,0,0,37.348,24.65114V23.34886A2.27861,2.27861,0,0,0,35.06906,21.07h0c-.5616,0-1.20454,0-1.72279-.00542h-.0108a.3237.3237,0,0,1-.30386-.21705v-.00542a8.69286,8.69286,0,0,0-.43409-1.02284.328.328,0,0,1,.06239-.37166l1.22362-1.229a2.27936,2.27936,0,0,0-.0082-3.223l-.92241-.91707a2.27685,2.27685,0,0,0-3.22306.0082c-.39609.39605-.85183.8546-1.22084,1.21542l-.00816.00811a.31787.31787,0,0,1-.36624.06239l-.00542-.00269a8.35977,8.35977,0,0,0-.98211-.39882.32459.32459,0,0,1-.217-.30651Zm-1.95337-1.73367v1.73367A2.28226,2.28226,0,0,0,26.515,16.82145l.01354.00269a6.55258,6.55258,0,0,1,.75421.3065,2.27018,2.27018,0,0,0,2.59639-.434c.37435-.369.8356-.83022,1.23442-1.23446a.32588.32588,0,0,1,.46116,0l.92246.91707a.32825.32825,0,0,1,.00273.46116L31.27356,18.0721a2.27841,2.27841,0,0,0-.42594,2.61538l.00547.01081a6.31577,6.31577,0,0,1,.33366.78948,2.275,2.275,0,0,0,2.13783,1.53012c.52363.00543,1.17746.00543,1.74448.00543a.32655.32655,0,0,1,.32559.32554v1.30228a.3265.3265,0,0,1-.32559.32554H33.33547A2.27607,2.27607,0,0,0,31.18133,26.515l-.00543.01076a5.891,5.891,0,0,1-.31743.776,2.27326,2.27326,0,0,0,.42867,2.59635c.36624.37439.83018.83829,1.23169,1.23719h0a.33081.33081,0,0,1,0,.46117l-.92241.92232a.33076.33076,0,0,1-.46121,0L29.9089,31.28983a2.27953,2.27953,0,0,0-2.6153-.434.01424.01424,0,0,1-.01089.00538,5.86388,5.86388,0,0,1-.77044.32563,2.275,2.275,0,0,0-1.53016,2.13775c-.00543.52359-.00543,1.17742-.00543,1.74448a.32651.32651,0,0,1-.32554.32554H23.34891a.32654.32654,0,0,1-.32559-.32554V33.33543A2.28213,2.28213,0,0,0,21.485,31.17855l-.01354-.00265a6.53979,6.53979,0,0,1-.75421-.30658,2.27027,2.27027,0,0,0-2.59635.43409c-.37435.36893-.8356.83018-1.23446,1.23446a.32581.32581,0,0,1-.46116,0l-.92246-.917a.32839.32839,0,0,1-.00269-.46125L16.7264,29.928a2.27867,2.27867,0,0,0,.42606-2.61539l-.00551-.01085a6.31861,6.31861,0,0,1-.33366-.78944,2.27513,2.27513,0,0,0-2.13783-1.53021c-.52363-.00538-1.17746-.00538-1.74452-.00538a.32648.32648,0,0,1-.32554-.32554V23.34886a.32653.32653,0,0,1,.32554-.32554h1.73363a2.276,2.276,0,0,0,2.1541-1.53832l.00543-.01081a5.89864,5.89864,0,0,1,.31743-.7759,2.27334,2.27334,0,0,0-.42863-2.59639c-.36624-.37435-.83018-.83829-1.23173-1.23707h0a.331.331,0,0,1,0-.46129l.92245-.92233a.33088.33088,0,0,1,.46117,0l1.22635,1.229a2.27961,2.27961,0,0,0,2.61526.43413.014.014,0,0,1,.01089-.00546,5.87192,5.87192,0,0,1,.77044-.32559,2.275,2.275,0,0,0,1.53021-2.13783c.00538-.52363.00538-1.17746.00538-1.74448a.32654.32654,0,0,1,.32559-.32554h1.30223a.32651.32651,0,0,1,.32554.32554ZM24,20.58163A3.41837,3.41837,0,1,0,27.41841,24,3.42145,3.42145,0,0,0,24,20.58163ZM24,22.535A1.465,1.465,0,1,1,22.535,24,1.46585,1.46585,0,0,1,24,22.535ZM24,47A23,23,0,1,1,47,24,23.02619,23.02619,0,0,1,24,47ZM24,3A21,21,0,1,0,45,24,21.02359,21.02359,0,0,0,24,3Z" fill-rule="evenodd"></path></svg>