<!-- icon666.com - MILLIONS vector ICONS FREE --><svg xmlns="http://www.w3.org/2000/svg" id="Icons" viewBox="0 0 60 60"><path d="M2,16c0,.37.016.738.047,1.108l2.352.933a1,1,0,0,1,.6.69,11.094,11.094,0,0,0,1.284,3.111,1,1,0,0,1,.066.909l-.994,2.337A14.592,14.592,0,0,0,6.92,26.644l2.327-.994a1,1,0,0,1,.911.065,11.188,11.188,0,0,0,3.113,1.294,1,1,0,0,1,.688.6l.933,2.342a12.872,12.872,0,0,0,2.215,0l.934-2.343a1,1,0,0,1,.688-.6,11.188,11.188,0,0,0,3.113-1.294,1,1,0,0,1,.911-.065l2.325.993a14.577,14.577,0,0,0,1.566-1.554l-.995-2.338a1,1,0,0,1,.066-.909A11.094,11.094,0,0,0,27,18.731a1,1,0,0,1,.6-.689l.568-.227a1.808,1.808,0,0,1-.1-.431Q28,16.691,28,16c0-.46.021-.922.063-1.383a1.81,1.81,0,0,1,.105-.431l-.568-.227a1,1,0,0,1-.6-.69,11.118,11.118,0,0,0-1.284-3.111,1,1,0,0,1-.065-.909l.993-2.336A14.676,14.676,0,0,0,25.08,5.356l-2.327.994a1,1,0,0,1-.91-.064,11.21,11.21,0,0,0-3.114-1.295,1,1,0,0,1-.688-.6l-.934-2.342a12.966,12.966,0,0,0-2.214,0L13.959,4.39a1,1,0,0,1-.688.6,11.21,11.21,0,0,0-3.114,1.3,1,1,0,0,1-.91.064L6.922,5.357A14.485,14.485,0,0,0,5.356,6.911L6.35,9.249a1,1,0,0,1-.065.909A11.118,11.118,0,0,0,5,13.269a1,1,0,0,1-.6.691l-2.352.933C2.016,15.261,2,15.631,2,16ZM16,7a9,9,0,1,1-9,9A9.01,9.01,0,0,1,16,7Z"></path><path d="M30,16c0,.37.016.738.047,1.108l2.352.933a1,1,0,0,1,.6.69,11.094,11.094,0,0,0,1.284,3.111,1,1,0,0,1,.066.909l-.994,2.337a14.5,14.5,0,0,0,1.563,1.556l2.327-.994a1,1,0,0,1,.911.065,11.188,11.188,0,0,0,3.113,1.294,1,1,0,0,1,.689.6l.22.556a1.808,1.808,0,0,1,.437-.1,14.81,14.81,0,0,1,2.758,0,1.862,1.862,0,0,1,.445.105l.22-.556a1,1,0,0,1,.689-.6,11.188,11.188,0,0,0,3.113-1.294,1,1,0,0,1,.911-.065l2.325.993a14.577,14.577,0,0,0,1.566-1.554l-.995-2.338a1,1,0,0,1,.066-.909A11.094,11.094,0,0,0,55,18.731a1,1,0,0,1,.6-.69l2.352-.933a13.212,13.212,0,0,0,0-2.215L55.6,13.96a1,1,0,0,1-.6-.691,11.118,11.118,0,0,0-1.284-3.111,1,1,0,0,1-.065-.909l.993-2.336A14.676,14.676,0,0,0,53.08,5.356l-2.327.994a1,1,0,0,1-.91-.064,11.21,11.21,0,0,0-3.114-1.295,1,1,0,0,1-.688-.6l-.934-2.342a12.966,12.966,0,0,0-2.214,0L41.959,4.39a1,1,0,0,1-.688.6,11.21,11.21,0,0,0-3.114,1.3,1,1,0,0,1-.91.064l-2.325-.993a14.485,14.485,0,0,0-1.566,1.554l.994,2.338a1,1,0,0,1-.065.909A11.118,11.118,0,0,0,33,13.269a1,1,0,0,1-.6.691l-2.352.933C30.016,15.261,30,15.631,30,16ZM44,7a9,9,0,1,1-9,9A9.01,9.01,0,0,1,44,7Z"></path><path d="M45.108,30.048a12.775,12.775,0,0,0-2.215,0l-.934,2.343a1,1,0,0,1-.688.6,11.245,11.245,0,0,0-3.114,1.295,1,1,0,0,1-.91.065l-2.325-.993a14.394,14.394,0,0,0-1.566,1.554l.994,2.338a1,1,0,0,1-.065.908A11.124,11.124,0,0,0,33,41.269a1,1,0,0,1-.6.69l-.568.227a1.8,1.8,0,0,1,.1.43,15.133,15.133,0,0,1,0,2.767,1.81,1.81,0,0,1-.105.431l.568.227a1,1,0,0,1,.6.69,11.063,11.063,0,0,0,1.284,3.11,1,1,0,0,1,.066.909l-.994,2.338a14.6,14.6,0,0,0,1.564,1.556l2.326-.995a1,1,0,0,1,.911.065,11.154,11.154,0,0,0,3.113,1.3,1,1,0,0,1,.688.6l.933,2.342a12.884,12.884,0,0,0,2.215,0l.934-2.344a1,1,0,0,1,.688-.6,11.154,11.154,0,0,0,3.113-1.3,1,1,0,0,1,.911-.065l2.325.994a14.486,14.486,0,0,0,1.566-1.554l-.995-2.339a1,1,0,0,1,.066-.909A11.063,11.063,0,0,0,55,46.731a1,1,0,0,1,.6-.691l2.352-.933a13.2,13.2,0,0,0,0-2.214L55.6,41.96a1,1,0,0,1-.6-.691,11.124,11.124,0,0,0-1.284-3.112,1,1,0,0,1-.065-.908l.993-2.336a14.676,14.676,0,0,0-1.563-1.557l-2.327.994a1,1,0,0,1-.91-.065,11.245,11.245,0,0,0-3.114-1.295,1,1,0,0,1-.688-.6ZM53,44a9,9,0,1,1-9-9A9.01,9.01,0,0,1,53,44Z"></path><path d="M17.82,31.832a1.808,1.808,0,0,1-.437.1A12.5,12.5,0,0,1,16.074,32c-.459,0-.944-.022-1.449-.064a1.862,1.862,0,0,1-.445-.105l-.22.556a1,1,0,0,1-.689.6,11.245,11.245,0,0,0-3.114,1.295,1,1,0,0,1-.91.065l-2.325-.993a14.394,14.394,0,0,0-1.566,1.554l.994,2.338a1,1,0,0,1-.065.908A11.124,11.124,0,0,0,5,41.269a1,1,0,0,1-.6.691l-2.352.933C2.016,43.261,2,43.631,2,44s.016.738.047,1.107L4.4,46.04a1,1,0,0,1,.6.691,11.063,11.063,0,0,0,1.284,3.11,1,1,0,0,1,.066.909l-.994,2.338a14.6,14.6,0,0,0,1.564,1.556l2.326-.995a1,1,0,0,1,.911.065,11.154,11.154,0,0,0,3.113,1.3,1,1,0,0,1,.688.6l.933,2.342a12.884,12.884,0,0,0,2.215,0l.934-2.344a1,1,0,0,1,.688-.6,11.154,11.154,0,0,0,3.113-1.3,1,1,0,0,1,.911-.065l2.325.994a14.486,14.486,0,0,0,1.566-1.554l-.995-2.339a1,1,0,0,1,.066-.909A11.063,11.063,0,0,0,27,46.731a1,1,0,0,1,.6-.691l2.352-.933a13.2,13.2,0,0,0,0-2.214L27.6,41.96a1,1,0,0,1-.6-.691,11.124,11.124,0,0,0-1.284-3.112,1,1,0,0,1-.065-.908l.993-2.336a14.676,14.676,0,0,0-1.563-1.557l-2.327.994a1,1,0,0,1-.91-.065,11.245,11.245,0,0,0-3.114-1.295,1,1,0,0,1-.689-.6ZM25,44a9,9,0,1,1-9-9A9.01,9.01,0,0,1,25,44Z"></path></svg>